<svg width="120" height="134" viewBox="0 0 120 134" fill="none" xmlns="http://www.w3.org/2000/svg">
<path d="M120 60C120 93.1371 93.1371 120 60 120C26.8629 120 0 93.1371 0 60C0 26.8629 26.8629 0 60 0C93.1371 0 120 26.8629 120 60Z" fill="#323232"/>
<path d="M60 133.5C63 133.5 74 117 74 117H45.5C45.5 117 57 133.5 60 133.5Z" fill="#323232"/>
<circle cx="60.5" cy="59.5" r="52.5" fill="white"/>
<path d="M32 56.8889H56.8889V32H32V56.8889ZM38.2222 38.2222H50.6667V50.6667H38.2222V38.2222Z" fill="#323232"/>
<path d="M32 88H56.8889V63.1111H32V88ZM38.2222 69.3333H50.6667V81.7778H38.2222V69.3333Z" fill="#323232"/>
<path d="M63.1111 32V56.8889H88V32H63.1111ZM81.7778 50.6667H69.3333V38.2222H81.7778V50.6667Z" fill="#323232"/>
<path d="M88.0001 81.7778H81.7778V88H88.0001V81.7778Z" fill="#323232"/>
<path d="M69.3333 63.1111H63.1111V69.3333H69.3333V63.1111Z" fill="#323232"/>
<path d="M75.5556 69.3333H69.3334V75.5556H75.5556V69.3333Z" fill="#323232"/>
<path d="M69.3333 75.5556H63.1111V81.7778H69.3333V75.5556Z" fill="#323232"/>
<path d="M75.5556 81.7778H69.3334V88H75.5556V81.7778Z" fill="#323232"/>
<path d="M81.7778 75.5556H75.5555V81.7778H81.7778V75.5556Z" fill="#323232"/>
<path d="M81.7778 63.1111H75.5555V69.3333H81.7778V63.1111Z" fill="#323232"/>
<path d="M88.0001 69.3333H81.7778V75.5556H88.0001V69.3333Z" fill="#323232"/>
</svg>
