<svg width="168" height="247" viewBox="0 0 168 247" fill="none" xmlns="http://www.w3.org/2000/svg">
<g filter="url(#filter0_ddddd_2_70)">
<path d="M144 90C144 123.137 117.137 150 84 150C50.8629 150 24 123.137 24 90C24 56.8629 50.8629 30 84 30C117.137 30 144 56.8629 144 90Z" fill="white"/>
<path d="M84 163.5C87 163.5 98 147 98 147H69.5C69.5 147 81 163.5 84 163.5Z" fill="white"/>
</g>
<circle cx="84.5" cy="89.5" r="52.5" fill="#2CAA2F"/>
<path d="M56 86.8889H80.8889V62H56V86.8889ZM62.2222 68.2222H74.6667V80.6667H62.2222V68.2222Z" fill="white"/>
<path d="M56 118H80.8889V93.1111H56V118ZM62.2222 99.3333H74.6667V111.778H62.2222V99.3333Z" fill="white"/>
<path d="M87.1111 62V86.8889H112V62H87.1111ZM105.778 80.6667H93.3333V68.2222H105.778V80.6667Z" fill="white"/>
<path d="M112 111.778H105.778V118H112V111.778Z" fill="white"/>
<path d="M93.3333 93.1111H87.1111V99.3333H93.3333V93.1111Z" fill="white"/>
<path d="M99.5555 99.3333H93.3333V105.556H99.5555V99.3333Z" fill="white"/>
<path d="M93.3333 105.556H87.1111V111.778H93.3333V105.556Z" fill="white"/>
<path d="M99.5555 111.778H93.3333V118H99.5555V111.778Z" fill="white"/>
<path d="M105.778 105.556H99.5555V111.778H105.778V105.556Z" fill="white"/>
<path d="M105.778 93.1111H99.5555V99.3333H105.778V93.1111Z" fill="white"/>
<path d="M112 99.3333H105.778V105.556H112V99.3333Z" fill="white"/>
<defs>
<filter id="filter0_ddddd_2_70" x="0" y="0" width="168" height="246.5" filterUnits="userSpaceOnUse" color-interpolation-filters="sRGB">
<feFlood flood-opacity="0" result="BackgroundImageFix"/>
<feColorMatrix in="SourceAlpha" type="matrix" values="0 0 0 0 0 0 0 0 0 0 0 0 0 0 0 0 0 0 127 0" result="hardAlpha"/>
<feOffset dy="4"/>
<feGaussianBlur stdDeviation="4"/>
<feColorMatrix type="matrix" values="0 0 0 0 0 0 0 0 0 0 0 0 0 0 0 0 0 0 0.1 0"/>
<feBlend mode="normal" in2="BackgroundImageFix" result="effect1_dropShadow_2_70"/>
<feColorMatrix in="SourceAlpha" type="matrix" values="0 0 0 0 0 0 0 0 0 0 0 0 0 0 0 0 0 0 127 0" result="hardAlpha"/>
<feOffset dy="15"/>
<feGaussianBlur stdDeviation="7.5"/>
<feColorMatrix type="matrix" values="0 0 0 0 0 0 0 0 0 0 0 0 0 0 0 0 0 0 0.09 0"/>
<feBlend mode="normal" in2="effect1_dropShadow_2_70" result="effect2_dropShadow_2_70"/>
<feColorMatrix in="SourceAlpha" type="matrix" values="0 0 0 0 0 0 0 0 0 0 0 0 0 0 0 0 0 0 127 0" result="hardAlpha"/>
<feOffset dy="33"/>
<feGaussianBlur stdDeviation="10"/>
<feColorMatrix type="matrix" values="0 0 0 0 0 0 0 0 0 0 0 0 0 0 0 0 0 0 0.05 0"/>
<feBlend mode="normal" in2="effect2_dropShadow_2_70" result="effect3_dropShadow_2_70"/>
<feColorMatrix in="SourceAlpha" type="matrix" values="0 0 0 0 0 0 0 0 0 0 0 0 0 0 0 0 0 0 127 0" result="hardAlpha"/>
<feOffset dy="59"/>
<feGaussianBlur stdDeviation="12"/>
<feColorMatrix type="matrix" values="0 0 0 0 0 0 0 0 0 0 0 0 0 0 0 0 0 0 0.01 0"/>
<feBlend mode="normal" in2="effect3_dropShadow_2_70" result="effect4_dropShadow_2_70"/>
<feColorMatrix in="SourceAlpha" type="matrix" values="0 0 0 0 0 0 0 0 0 0 0 0 0 0 0 0 0 0 127 0" result="hardAlpha"/>
<feOffset dy="-10"/>
<feGaussianBlur stdDeviation="10"/>
<feComposite in2="hardAlpha" operator="out"/>
<feColorMatrix type="matrix" values="0 0 0 0 0 0 0 0 0 0 0 0 0 0 0 0 0 0 0.1 0"/>
<feBlend mode="normal" in2="effect4_dropShadow_2_70" result="effect5_dropShadow_2_70"/>
<feBlend mode="normal" in="SourceGraphic" in2="effect5_dropShadow_2_70" result="shape"/>
</filter>
</defs>
</svg>
