<svg width="28" height="28" viewBox="0 0 45 45" fill="none" xmlns="http://www.w3.org/2000/svg">
  <path d="M38.6808 20.3195C37.8311 12.6165 31.7168 6.50223 24.0139 5.65251V1.84723H20.3195V5.65251C12.6165 6.50223 6.50223 12.6165 5.65251 20.3195H1.84723V24.0139H5.65251C6.50223 31.7168 12.6165 37.8311 20.3195 38.6808V42.4861H24.0139V38.6808C31.7168 37.8311 37.8311 31.7168 38.6808 24.0139H42.4861V20.3195H38.6808ZM22.1667 35.0972C15.0179 35.0972 9.23612 29.3154 9.23612 22.1667C9.23612 15.0179 15.0179 9.23612 22.1667 9.23612C29.3154 9.23612 35.0972 15.0179 35.0972 22.1667C35.0972 29.3154 29.3154 35.0972 22.1667 35.0972Z" fill="white"/>
  <path d="M22.1667 11.0833L14.7778 29.1024L15.4773 29.8019L22.1667 26.8463L28.8561 29.8019L29.5556 29.1024L22.1667 11.0833Z" fill="white"/>
</svg>